<?xml version="1.0" encoding="UTF-8" standalone="no"?>
<svg width="640" xmlns="http://www.w3.org/2000/svg" xmlns:xlink="http://www.w3.org/1999/xlink" height="480">
 <defs>
  <linearGradient id="linearGradient3173">
   <stop id="stop3175" stop-color="#434343" offset="0"/>
   <stop id="stop3177" stop-color="#161616" offset="1"/>
  </linearGradient>
  <radialGradient id="radialGradient3680" xlink:href="#linearGradient3173" gradientUnits="userSpaceOnUse" cy="470.36" cx="69" gradientTransform="matrix(.032934 .070181 -.10646 .036355 365.94 334.56)" r="40"/>
  <radialGradient id="radialGradient3634" xlink:href="#linearGradient3173" gradientUnits="userSpaceOnUse" cy="470.36" cx="69" gradientTransform="matrix(.25420 .61532 -.82170 .31875 712.94 207.2)" r="40"/>
  <radialGradient id="radialGradient3676" xlink:href="#linearGradient3173" gradientUnits="userSpaceOnUse" cy="470.36" cx="69" gradientTransform="matrix(.082676 .22666 -.26725 .11741 473.45 277.21)" r="40"/>
 </defs>
 <g id="svg_2">
  <g fill="#007fff">
   <path id="svg_3" opacity=".5" d="m187.08 309.71c99.108 9.673 188.5 7.882 292.62 0-16.629 45.956-21.905 91.912-18.427 137.87l-252.52-0.876c2.1662-47.109-8.8384-92.384-21.674-136.99z" stroke-opacity=".196" stroke="#0584ff" stroke-width=".911"/>
   <path id="svg_4" opacity=".65" d="m235.82 220.38c82.396 3.5274 124.03 2.3292 203.9 0-3.2102 75.948 6.5612 193.39 26.847 225.18h-256.36c15.163-30.153 30.556-151.05 25.609-225.18z" stroke-opacity=".21" stroke="#ff16b9" stroke-width="1.081"/>
  </g>
  <g stroke-width="1.078">
   <path id="svg_5" fill="url(#radialGradient3680)" d="m243.99 253.75l-1.0644 1.0367-0.5322 0.5183-8.4463 8.2264c-0.14438-0.81778-0.67087-1.6582-1.537-2.3155-1.6751-1.2712-3.9884-1.374-5.1634-0.22958-1.175 1.1445-0.76916 3.105 0.90598 4.3762 0.052368 0.039703 0.10712 0.07724 0.16064 0.11468 1.3911 0.97278 3.1674 1.1744 4.3758 0.56125l0.0948 0.072 0.5322-0.5183 9.9119-9.6538 8.3455 6.3329-8.7124 8.4855c-0.14441-0.81775-0.67087-1.6582-1.537-2.3155-1.6752-1.2712-3.9884-1.374-5.1634-0.22961-1.1751 1.1445-0.7692 3.105 0.90598 4.3762 1.4125 1.0718 3.2815 1.3127 4.5364 0.67593l0.0948 0.072 10.976-10.69 1.3305-1.2958-10.014-7.5995z"/>
   <path id="svg_6" fill="url(#radialGradient3676)" d="m301.72 228.04l-2.6719 3.348-1.3359 1.674-21.203 26.568c-0.36249-2.641-1.6841-5.3553-3.8584-7.4781-4.2052-4.1054-10.012-4.4376-12.962-0.74149-2.9498 3.6961-1.9309 10.028 2.2743 14.133 0.13141 0.1283 0.26883 0.24951 0.40323 0.37042 3.4922 3.1417 7.9512 3.793 10.985 1.8126l0.2381 0.2324 1.336-1.674 24.882-31.178 20.95 20.453-21.871 27.405c-0.36249-2.641-1.6841-5.3553-3.8584-7.4781-4.2052-4.1054-10.012-4.4376-12.962-0.74149-2.9498 3.6961-1.9309 10.028 2.2743 14.133 3.5458 3.4617 8.2376 4.2396 11.388 2.183l0.2381 0.2324 27.554-34.526 3.3399-4.1849-25.14-24.544z"/>
   <path id="svg_7" fill="url(#radialGradient3634)" d="m369.56 236.61l-8.2152 9.089-4.1076 4.5445-65.192 72.126c-1.1145-7.1698-5.1781-14.538-11.863-20.301-12.93-11.145-30.784-12.047-39.854-2.013-9.0696 10.034-5.9369 27.224 6.9927 38.369 0.40405 0.34833 0.8266 0.67734 1.2398 1.0056 10.737 8.529 24.447 10.297 33.774 4.9209l0.732 0.631 4.1076-4.5445 76.504-84.641 64.414 55.525-67.246 74.398c-1.1145-7.1698-5.1781-14.538-11.863-20.301-12.93-11.145-30.784-12.047-39.854-2.013-9.0696 10.034-5.9369 27.224 6.9927 38.369 10.902 9.3977 25.328 11.51 35.014 5.9265l0.732 0.631 84.72-93.73 10.269-11.361-77.297-66.63z"/>
  </g>
 </g>
</svg>
