<?xml version="1.0" encoding="UTF-8" standalone="no"?>
<svg width="383.11" xmlns="http://www.w3.org/2000/svg" height="1141">
 <g id="layer1">
  <path id="path2290" d="m151.66 0.0095c-1.4242 0.02791-2.9452 0.11598-4.5312 0.25-2.0245 0.87749-3.9861 1.8151-5.9062 2.8125-1.4741-0.8845-3.5678-0.72579-4.5938 1.0938-0.1889 0.0797-0.40192 0.13401-0.59375 0.25-6.5482 3.9594-11.973 8.6847-16.656 14.062-0.02887 0.033178-0.06488 0.060518-0.09375 0.09375-5.6639 5.1444-10.909 10.825-15.844 16.875-10.051 19.011-9.5283 40.543-10.25 61.438-0.000366 0.010384 0.000366 0.020866 0 0.03125-0.88721 6.8212-1.6906 13.625-2.5625 20.375-5.2597 39.313-6.5317 78.983-6.3125 118.59 0.013672 2.4676 2.3854 3.2396 3.9375 2.4062-0.27753 3.6272-0.56622 7.2527-0.84375 10.875-0.28339 3.6994 4.9457 4.0752 5.2188 0.375 0.055367-0.75046 0.10083-1.4993 0.15625-2.25 0.72211 6.3162 1.4189 12.643 2.0625 18.969-0.064758 0.78012-0.12524 1.5632-0.1875 2.3438-1.46 19.497 1.115 38.873 3.625 58.156 3.3539 20.132 5.1936 40.405 9.1562 60.438 0.25128 0.84897 0.52288 1.6847 0.78125 2.5312-5.2778 8.7031-10.484 17.459-15.562 26.281-0.35254 0.59436-0.70874 1.1875-1.0625 1.7812-3.2412 4.7219-6.4388 9.4778-9.5625 14.281-11.338 18.834-22.601 37.738-34.5 56.219-8.9792 13.803-18.525 27.488-23.344 43.438-5.795 17.185-12.335 34.186-15.625 52.094-2.5872 16.752-4.3702 33.539-4.5312 50.531-0.2497 15.843 0.82318 31.265 5.625 46.188 0.11731 4.4582 0.60437 8.8772 1.5625 13.25 1.6427 11.252 3.6832 22.411 6.8125 33.219 1.2654 9.7509 3.1742 19.306 7.8438 28.219 2.0868 3.4536 4.3205 6.8408 6.375 10.312 1.8069 4.0035 3.6799 7.9684 5.625 11.906 0.054619 0.16834 0.1037 0.33063 0.15625 0.5 4.2801 9.3641 8.9191 18.446 16.188 25.938 2.7716 1.8473 5.5856 3.5939 8.4375 5.25 1.2571 2.0174 2.5479 4.0149 3.875 6 1.8528 2.7714 5.1514 1.5541 5.9062-0.75 2.5178 3.7833 4.7863 7.7073 6.6562 11.875 1.9388 4.3212 8.3564 2.1769 6.375-2.125-0.85657-1.8598-1.7899-3.6572-2.7812-5.4375 1.601 0.60193 3.2065 1.1499 4.8438 1.6875-2.2858 1.3951-2.1506 5.6217 1.4688 6.2812 11.386 2.075 22.7 4.0253 34.219 5.1875 6.4041-0.045349 12.778 0.56836 19.125 1.2812 0.084412 0.031006 0.16492 0.063416 0.25 0.09375 9.1936 3.984 18.307 5.8287 28.375 6.625 4.5027 0.35608 5.7045-5.9122 1.7188-6.5625 3.1961-0.66302 6.3993-1.4769 9.5938-2.4062 6.9154-1.757 13.516-4.3559 20.156-6.7812-1.6594 1.4837-1.2435 4.3321 0.71875 5.3125-8.1675 1.9599-16.454 3.3383-24.938 3.8125-4.7037 0.26288-3.756 6.9998 0.9375 6.5938 24.241-2.0971 46.93-10.942 69.406-19.656 3.5662-1.2809 5.275-1.8764 7.375-2.625 1.0464-0.008789 2.1158 0.074036 3.2188 0.25 0.16614 0.010315 0.3338 0.020508 0.5 0.03125 2.584 8.1012 5.0568 16.215 7.0312 24.5 3.2617 16.416 6.3798 32.877 8.9688 49.406-0.81415 0.57574-1.3809 1.5466-1.3438 2.9375 0.42017 15.752 0.64465 31.435-1.5312 47.062-2.494 17.706-7.6812 34.864-13.125 51.844-5.4088 16.085-11.523 31.781-19.469 46.656-7.0577 6.0914-14.177 12.104-21.312 18.125-7.9315 6.6722-15.38 13.766-22.656 21.156-0.16736 0.037598-0.33154 0.088501-0.5 0.125-11.932 0.82422-23.631 3.1991-35.344 5.4688-15.336 5.5168-30.64 4.6091-46.438 2.7188-5.8164-0.81909-11.291-2.1326-16.531-3.9062-2.1765-1.2778-4.3024-2.7036-6.3125-4.375-1.6081-1.337-3.3295-1.0577-4.4375-0.0625-1.6796-0.83252-3.3569-1.7122-5-2.6562-4.0565-3.5244-7.6533-7.416-10.688-11.875-4.0569-11.028-2.966-23.244-2.625-35.125-0.069824-13.59 1.4543-26.571 4.8125-39.656 3.6677-13.624 12.358-22.227 22.625-31.031 9.597-7.4074 20.271-8.1392 31.844-8.9375 1.8192-0.21204 3.6481-0.34851 5.4688-0.5 2.3756 1.1589 4.7991 2.4564 7.3438 3.8125 4.3217 2.2029 7.5798 5.1786 10.312 8.5938-0.092957-0.03363-0.1878-0.060364-0.28125-0.09375-1.1042-0.2533-2.208-0.46716-3.3125-0.6875-3.7402-3.8697-8.0698-7.3442-13.062-10.312-12.819-1.1112-21.5 4.008-27.344 12.25-8.2095 3.2032-15.651 8.5449-21.875 16.688-0.7384 1.4487-1.458 2.9139-2.125 4.375-0.98224 1.0704-1.9183 2.2098-2.8438 3.3438-9.9949 18.583-11.169 38.314-3.7812 58.281 4.296 8.1477 9.3238 13.998 15.406 16.906 4.7253 4.2394 10.628 7.0814 19.031 8 1.4999 0.023071 2.9998 0.039307 4.5 0.0625 4.7894 2.6296 10.53 3.9507 17.531 3.375 2.0299-0.92334 3.988-1.9288 5.875-3 4.5842 0.075684 9.1697 0.13879 13.75 0.21875 15.763-5.072 29.018-11.73 39-25.812 6.1139-13.577 9.1278-25.867 4.75-40.875-3.9818-13.402-7.5036-26.997-12.969-39.906-4.6534-9.715-8.8052-17.552-18.844-21.125-0.7196-0.82977-1.4537-1.6753-2.2188-2.5-36.303-25.919-69.46-15.631-94.188 19.938-6.4429 4.6584-12.558 9.7079-17.375 16.219-6.0969 8.5003-12.084 17.09-17.281 26.188-3.7327 7.2938-6.9686 14.641-8.9062 22.656-1.3784 8.2947-2.5428 16.572-1.4688 25 2.1529 9.5177 5.2432 18.492 10.562 26.812 4.93 10.154 8.9902 20.812 15.281 30.219 9.4644 10.957 18.79 21.768 33.344 25.781 0.8382 0.23108 1.544 0.18884 2.125-0.03125 0.44537 0.4458 0.88477 0.90576 1.3438 1.3438 30.029 13.835 63.128-1.1998 92.875-10.062 24.836-9.1654 48.177-19.023 64.625-41 16.676-22.944 25.078-49.262 32.188-76.531 7.3634-27.756 11.936-56.275 10.5-85.094-0.50983-5.016-1.1356-10.033-1.7812-15.031 0.03894-3.5636 0.095947-7.1234 0.125-10.688 0.16705-10.446 0.56873-20.927-0.46875-31.344-1.8093-10.133-3.7472-20.288-7.8438-29.812-2.5029-5.8195-5.0345-11.63-7.5-17.469 5.0258 0.28168 10.028 0.3139 15-0.65625 11.54-4.4454 21.396-10.791 31.062-18.688 3.666-2.9946-0.5816-8.2854-4.1875-5.2188-8.8298 7.5095-17.821 13.657-28.625 17.562-3.396 0.52112-6.7999 0.59137-10.219 0.46875 2.2708-0.90955 4.986-2.0058 9.6875-3.875 3.6315-1.4438 1.5658-6.6082-2.0625-5.1562-9.2996 3.7214-12.211 4.9277-14.656 5.875-0.87891-2.1824-1.7508-4.3656-2.5938-6.5625 8.7474-2.6707 17.552-5.3196 25.969-8.875 5.4161-2.6424 10.698-5.5299 15.969-8.4375 0.1496 0.30109 0.33179 0.5918 0.5625 0.84375-0.034668 0.037292-0.36615 0.39624-0.375 0.40625-3.3942 2.0179-6.7872 4.0196-10.188 6.0312-3.5442 2.0967-1.1034 6.7068 2.2188 6.125 1.0992 1.1952 3.0248 1.5868 4.5938-0.0625 3.8124-4.0076 5.3344-5.6144 6-6.25 0.13532-0.083008 0.27087-0.16705 0.40625-0.25-0.38532 0.48724 0.67078-0.6687 0.125-0.0625 9.0285-5.5295 18.184-10.88 27.156-16.5 9.2371-6.976 17.19-15.495 25.781-23.25 0.84778-0.9256 1.6874-1.8566 2.5312-2.7812 0.50037-0.29126 0.9552-0.7356 1.3125-1.4062 0.021912-0.041077 0.040649-0.083923 0.0625-0.125 5.6429-6.2113 11.138-12.461 16.156-19.219 5.3458-8.923 6.5988-18.242 7.3125-28.344 0.32489-4.5983-6.1563-4.847-6.5-0.25-0.66095 8.8398-1.6913 16.973-6.25 24.844-0.080994 0.10553-0.16888 0.20709-0.25 0.3125 3.8762-10.399 6.3876-21.198 6.5-32.875 0.014771-13.034-1.0596-25.926-4-38.469-1.4757-20.773-5.5806-40.614-15.312-58.562-0.78748-1.5983-1.629-3.1119-2.5625-4.4688-3.7836-6.2363-8.3049-12.241-13.688-17.938-15.544-15.054-32.2-22.349-52.719-21.219-5.535-1.4794-11.417-2.394-17.688-2.6875-10.23-0.68866-20.079-3.1577-24.594 0.96875-0.10394-0.018982-0.20862-0.043457-0.3125-0.0625 0.034058 0.095093 0.057983 0.18915 0.09375 0.28125-0.29297 0.2945-0.53931 0.60986-0.78125 0.96875-7.1147-1.3281-14.314-1.6913-21.812 0.15625-12.81 1.9962-25.839 3.567-38.188 7.5938-7.201-31.761-16.518-62.888-27.781-93.469-2.9332-8.6051-5.9141-17.186-8.875-25.781 3.8698-5.502 7.7313-10.994 11.594-16.5 4.6827-4.5934 9.0691-9.4694 13.344-14.562 6.2702-9.0528 11.457-18.753 16.844-28.344 0.76276-0.3876 1.4043-1.1298 1.6562-2.2812 0.077271-0.3533 0.14166-0.70917 0.21875-1.0625 0.95013-1.6659 1.9284-3.3189 2.9062-4.9688 4.0603-7.247 7.7243-14.686 11.375-22.156 10.298-17.314 20.501-34.613 27.812-53.5 0.27948-0.81201 0.51648-1.6232 0.78125-2.4375-0.03186 2.3502-0.07666 4.7105-0.15625 7.0625-1.7447 11.09-3.3709 22.193-6.25 33-2.6674 5.7914-6.1 11.192-9.1562 16.844-2.7948 7.094-7.4546 13.142-11.938 19.219-5.7545 7.8955-11.36 15.853-17.438 23.5-6.1948 6.4961-11.794 13.524-17.625 20.344-7.2334 9.0481-13.97 18.488-21.094 27.625-2.614 3.3528 2.0662 7.0412 4.7188 3.7188 7.1476-8.9528 14.039-18.124 21.281-27 5.9171-6.8471 11.62-13.865 17.812-20.469 6.0714-7.7299 11.725-15.745 17.562-23.656 4.7283-6.3846 9.7117-12.691 12.656-20.156 3.2322-5.9287 6.9394-11.631 9.4688-17.875 2.8957-11.418 4.7399-23.063 6.3125-34.781 0.30158-10.828 0.10687-21.631-0.3125-32.438 0.26782-1.8446 0.48602-3.7099 0.6875-5.5625 1.8012 0.83072 4.4092-0.29712 4.1562-3.0625-1.7526-19.164-0.65247-9.2824-3.4062-29.656-0.087891-0.47992-0.19275-0.95758-0.28125-1.4375-0.22235-14.272 0.063477-28.49-0.8125-42.719 2.15 6.604 4.5786 13.052 7.7812 19.062-2.0374-0.07663-4.0822 1.8368-3.0312 4.5312 0.92767 2.3784 1.8848 4.7779 2.8125 7.1562 22.469 8.3133-7.7847-36.334-9.7812-53.25-4.2686-9.8363-8.6343-19.643-13.188-29.375-3.8389-20.755-5.7152-42.07-14.75-61.375-8.4033-15.762-17.07-31.384-25.625-47.062 2.8863-8.8191 2.5452-16.387-6.0625-11.188-0.16821-0.3114-0.33191-0.62602-0.5-0.9375-2.2214-4.1165-8.1074-0.7276-5.75 3.3125 0.38074 0.65251 0.74493 1.3157 1.125 1.9688-0.52234 0.63151-1.0458 1.2708-1.5625 1.9062-0.9425-2.5166-1.9185-5.0114-2.9688-7.5 1.9518-5.7116 4.5817-9.8034-3.8125-9.0625-0.47003 0.54432-0.91321 1.1063-1.375 1.6562-4.4748-4.6246-9.6617-5.9827-16.75-5.8438zm-3.0625 6.625c7.2708-0.01703 11.712-0.28717 15.75 4.25-1.1774 1.5262-2.3184 3.0905-3.4375 4.6562-2.3938-2.3365-4.8353-4.6276-7.3125-6.875-3.5206 1.4603-5.6271 4.3252-6.75 8.0625-0.46252 0.86552-0.89905 2.0557-1.3438 3.4062-4.9263 4.3888-7.8545 14.864-8.625 22.5-2.1021 5.2598-2.1542 7.5126-1 7.6875-0.8252 2.8834-1.7216 5.7424-2.6562 8.5938-6.4642 7.8518-14.731 22.651-14.812 31.812-5.2151 11.079-26.882 66.943-9.25 39-0.1181 0.40088-0.2337 0.797-0.34375 1.1875-3.6735 9.2579-6.6193 18.825-9.1875 28.531-0.36615-5.3053-0.66016-10.629-0.90625-15.938 0.20562-0.31149 0.38092-0.70464 0.46875-1.1562 6.0098-30.899 12.006-62.201 23.719-91.531 6.2026-13.633 13.601-26.714 18.719-40.812 2.2472-1.2095 4.5605-2.3463 6.9688-3.375zm0.5 6.9375c1.3534 1.1714 2.7036 2.3612 4.0312 3.5625-0.48505-0.048891-1.1176 0.028608-1.9375 0.25-0.39563-0.7393-0.76605-1.2971-1.125-1.6875-0.31067-0.73337-0.62701-1.4397-0.96875-2.125zm-16.625 2.125c-0.94519 2.3335-1.9578 4.6448-3 6.9375-1.4565-0.87538-3.584-0.78718-4.9062 1.1875-6.084 9.0863-11.736 18.258-16.344 28.156-0.4433 1.4804-0.89452 2.959-1.3438 4.4375 0.42559-1.4882 0.87762-2.9625 1.3438-4.4375 1.3083-4.14 2.7577-8.2357 4.4375-12.25 4.0277-6.8631 8.048-13.291 13.125-18.812 2.1523-1.831 4.3712-3.5795 6.6875-5.2188zm55.25 1.9063c0.041626 0.11172-0.58618 1.1273-1.4375 2.4688-0.11346-0.20879-0.23035-0.41618-0.34375-0.625 1.1448-1.2977 1.7464-1.9372 1.7812-1.8438zm-20.406 0.3438c0.070374 0.40631 0.14307 0.81346 0.21875 1.2188-0.25708 0.78609-0.24078 1.7208 0.25 2.7188 0.17902 0.36402 0.35284 0.72947 0.53125 1.0938 0.02124 0.093578 0.040955 0.18772 0.0625 0.28125-0.93036-1.019-1.8574-2.0351-2.8125-3.0312 0.57849-0.76548 1.1613-1.523 1.75-2.2812zm-12.969 0.3125c0.96228 0.88533 1.9019 1.7815 2.8438 2.6875-0.31812 0.48597-0.62457 0.9793-0.9375 1.4688-0.97656-0.47934-2.087-0.59861-2.9375-0.21875 0.73431-1.6867 1.1357-3.058 1.0312-3.9375zm27.094 6.3125c0.3548 0.61428 0.70837 1.229 1.0625 1.8438-0.35168 0.67971-0.65253 1.356-0.90625 1.9688-0.45837 0.99065-0.91913 1.977-1.375 2.9688-0.41693-1.2951-0.84375-2.5858-1.2812-3.875 0.82562-0.97657 1.6583-1.9418 2.5-2.9062zm-19.688 0.9062c2.0641 2.171 4.0526 4.4197 5.9375 6.75-1.2149 1.6392-2.4378 3.2786-3.625 4.9375-1.4526-1.2896-3.929-1.4269-5.2188 0.9375-0.96429 1.7678-1.9105 3.545-2.875 5.3125-0.25751-2.4528-0.57044-4.8743-0.90625-7.2812 2.0318-3.6833 4.2971-7.2311 6.6875-10.656zm24.531 7.5c8.0275 14.069 15.87 28.25 23.438 42.562 5.6185 12.568 8.3449 25.944 10.656 39.438-6.3778-12.659-13.159-25.114-20.562-37.188-2.9888-8.1209-6.0215-16.241-9.5312-24.156-2.3933-4.7994-4.7417-9.6075-7.0625-14.438 1.0055-2.0842 2.0323-4.1464 3.0625-6.2188zm-15 4c0.53638 0.75737 1.0495 1.5043 1.5625 2.2812 0.20758 0.31434 0.45026 0.56694 0.6875 0.78125 0.40619 1.0823 0.82349 2.143 1.25 3.2188-3.643 8.0734-7.2241 16.18-10.875 24.25-0.38544 0.85193-0.38416 1.6337-0.15625 2.2812-0.75458-0.27793-1.6885-0.26769-2.6875 0.1875-7.4977 3.4162-13.901 7.8903-19.719 13.062 0.043518-0.10331 0.081421-0.20922 0.125-0.3125 3.4946-6.107 7.066-12.14 10.781-18.094 0.16254 1.0214 0.33374 2.0135 0.4375 2.9375 0.42609 3.7939 5.7286 3.2358 5.3438-0.5625-0.31732-3.1318-0.59161-6.5507-0.875-10.031 4.476-6.8354 9.1522-13.531 14.125-20zm-22.312 11.375c0.40839 1.9375 0.81891 3.8273 1.2188 5.6875-4.6052 8.4805-9.1711 16.974-13.625 25.531-0.13208 0.059914-0.27319 0.11018-0.40625 0.1875 3.5152-10.745 7.8753-21.198 12.812-31.406zm-32.125 0.8438c-8.7408 22.822-13.956 46.831-18.656 70.844 0.013733-1.577 0.026306-3.1415 0.0625-4.7188 1.823-11.354 3.9584-22.64 7.5938-33.594 2.8952-9.0289 5.8325-18.064 8.4375-27.188 0.81232-1.8117 1.6733-3.5828 2.5625-5.3438zm61 1.375c0.18103 0.41624 0.34845 0.83468 0.53125 1.25-0.88532 0.70016-1.4508 1.8408-1.3125 3.0625-1.0036 0.92444-1.5151 2.4451-0.71875 4.1562 7.2027 15.475 15.239 30.521 22.875 45.781 7.3043 13.105 12.713 26.982 17.25 41.188 0.46637 4.0621 0.66559 8.1077 0.65625 12.156-0.91498 0.71898-1.4326 1.9585-0.84375 3.5 0.24646 0.64511 0.50244 1.2922 0.75 1.9375-0.25757 5.9752-0.89832 11.952-1.6562 18-1.4324-0.21582-3.0328 0.59915-3.3125 2.625-0.651 4.7156-1.2865 9.4094-1.9375 14.125-0.22241 1.0098-0.45636 2.0234-0.6875 3.0312 0.14062-2.2416 0.25226-4.4699 0.34375-6.7188 0.039124-7.4679-0.10858-14.939-0.1875-22.406 0.27332-8.1354-2.2438-15.882-4.1875-23.656-1.8485-9.4481-4.3035-18.752-6.5938-28.094-1.9109-7.84-3.7109-15.685-5.8125-23.469-1.7988-8.1287-6.5222-14.864-10.719-21.844-1.0094-1.0781-0.95404-2.5393-1.4375-3.8125-1.7033-4.4854-8.3538-2.4879-6.5 1.9375 0.000488 0.001221 1.6964 5.8778 2.3438 5.625 3.8451 6.2144 8.2058 12.166 9.7812 19.5 2.1364 7.77 3.9794 15.625 5.875 23.469 2.3784 9.4582 4.8796 18.891 6.625 28.5 1.8196 7.1999 4.2291 14.364 3.9375 21.906 0.091736 7.3988 0.22638 14.788 0.25 22.188-0.341 9.1468-0.97461 18.25-3.1562 27.188-2.0558 8.2884-4.2516 16.501-6.625 24.75-1.1756 5.0933-2.3345 10.183-3.6562 15.219-2.0397 4.6889-4.2087 9.3151-6.4688 13.906-12.758 21.761-29.009 41.123-42.438 62.469-4.2478 6.5215-8.4435 13.06-12.625 19.625-6.7496-28.235-11.387-56.867-16.125-85.531-2.4337-15.087-4.3546-30.207-6.0625-45.375 0.13867-0.845 0.26245-1.6867 0.40625-2.5312 1.881-12.553 2.9969-25.35 6.5312-37.562 4.7829-13.243 9.6901-26.407 14.875-39.5 5.0656-13.024 9.7846-26.337 17.5-38.094 7.8508-9.9344 15.689-19.33 27.688-24.5 4.3378-1.869 1.2925-7.9394-3-5.9688-12.804 5.8781-21.342 16.039-29.875 26.75-8.102 12.161-12.984 25.963-18.219 39.5-5.127 13.139-10.191 26.284-15.031 39.531-1.6054 5.386-2.7129 10.894-3.625 16.438-0.67469-6.6962-1.334-13.393-2-20.094-0.08075-1.001-0.16962-1.9988-0.25-3 0.35485-1.721 0.73571-3.4411 1.125-5.1562 2.2403-9.1075 4.6576-18.127 7.5938-26.938 1.0879 0.06424 2.5261-0.35127 4.375-1.3438 0.8067-2.2681 1.6937-4.4981 2.625-6.75 1.1151 1.4399 3.7342 1.5323 4.5625-0.875 4.445-12.919 8.9912-25.805 13.938-38.531 7.9255-9.1912 16.751-17.119 28.469-22.062 2.2219-0.93734 2.5831-3.039 1.8438-4.5938 1.2278 0.40292 2.7048 0.007721 3.4688-1.6562 2.9461-6.4172 5.8682-12.845 8.8438-19.25zm32.656 56c4.4428 8.1258 8.6646 16.399 12.688 24.75 0.76099 4.3459 1.5422 8.6796 2.5 12.969 1.1475 4.1898 2.1831 8.399 3.1562 12.625-1.7089-5.4498-3.5137-10.883-5.4688-16.25-1.1978-2.8864-2.3386-5.7776-3.4688-8.6875-0.011902-0.03064-0.019348-0.063126-0.03125-0.09375-0.18842-0.71849-0.38617-1.4672-0.59375-2.1875-0.39337-0.81551-0.7901-1.6246-1.1875-2.4375-2.5964-6.8693-5.0848-13.785-7.5938-20.688zm24.344 50.125c1.2749 2.8861 2.5287 5.7663 3.7812 8.6562 0.96668 2.8788 1.8824 5.8092 2.7812 8.75-1.1418-0.014389-2.2956 0.58627-2.8125 1.7188-1.1084-6.4012-2.3345-12.783-3.75-19.125zm-141.06 1.5c0.46368 6.5993 0.98632 13.187 1.5312 19.781-0.2641 1.3783-0.53661 2.7435-0.78125 4.125-0.16589-5.8908-0.37604-11.775-0.8125-17.656-0.01429-2.0836 0.01342-4.1752 0.0625-6.25zm128.25 18.719c3.3788 9.3542 6.3352 18.877 7.6875 28.781 0.45752 3.4331 0.90564 6.8334 1.25 10.25-1.2364-2.5632-5.3843-3.0721-6.1562 0.53125-1.4122 6.5914-2.7788 13.181-4.1562 19.781-1.6495-1.0329-4.1198-0.69342-4.875 1.9062-8.0969 27.873-18.136 55.148-28.406 82.281-7.0261 19.902-15.834 39.076-24.594 58.25-1.5022 3.2882 3.1507 5.4117 4.6562 2.125 8.8256-19.266 17.755-38.512 25.031-58.438 8.3859-21.755 16.404-43.664 23.969-65.719-3.8688 18.769-7.7465 37.544-11.781 56.281-0.63452 0.28448-1.2059 0.81079-1.5625 1.6875-7.3986 18.189-14.148 36.714-23.031 54.25-10.391 17.655-22.283 34.267-34.344 50.781-1.2955-3.9182-2.539-7.8463-3.7812-11.781 0.25537-0.23132 0.50244-0.50336 0.71875-0.84375 9.994-15.726 17.812-32.481 24.75-49.656 0.73816-1.4079 1.4882-2.8062 2.2188-4.2188 13.447-26.974 25.553-54.469 34.625-83.219 5.2319-23.828 10.992-47.567 14.906-71.656 1.0644-7.2259 2.125-14.335 2.875-21.375zm-124.66 22.438c0.82294 8.2107 1.6446 16.429 2.5625 24.625-0.74598 4.4865-1.395 9.0009-2 13.5-0.80634-6.9433-1.6042-13.883-2.25-20.844-0.04541-0.68588-0.084419-1.3764-0.125-2.0625 0.52642-5.0795 1.1215-10.162 1.8125-15.219zm-8.0625 13.875c0.067017 1.2626 0.13795 2.5193 0.21875 3.7812 0.078987 0.84091 0.16803 1.6906 0.25 2.5312-0.13702 1.5065-0.27698 3.024-0.40625 4.5312-0.04187-3.608-0.064323-7.2366-0.0625-10.844zm141.88 5.375c0.40362 5.0084 0.49524 10.036-0.125 15.125-0.58026 10.415-1.0953 20.766 0.5625 31.125-0.85199 11.326-1.6831 22.805-4.9062 33.75-5.6323 12.047-11.535 23.969-16.469 36.344-2.882 5.7511-5.6723 11.547-8.5312 17.312-0.25897 0.4324-0.49139 0.87976-0.75 1.3125 2.2529-10.609 4.5043-21.227 6.875-31.812 7.4904-34.437 14.428-69.075 23.344-103.16zm-25.5 17.5c-1.1366 5.185-2.3013 10.378-3.4375 15.562-0.62439-0.29401-1.3705-0.33173-2.0312-0.09375 1.9432-5.1117 3.7709-10.267 5.4688-15.469zm31.562 6.0625c0.1853 1.6688 0.37463 3.325 0.53125 5 0.28296 7.2614 0.55029 14.501 0.78125 21.75-0.40485 2.7015-0.87604 5.4109-1.4375 8.0938 0.38586-3.9244 0.67658-7.837 1-11.75-1.1713-7.6989-1.1762-15.388-0.875-23.094zm-134.31 6.4062c1.0903 8.1704 2.2841 16.325 3.625 24.469 5.006 30.561 10.071 61.048 17.531 91.094-3.8336 6.071-7.6177 12.163-11.375 18.281-0.7561-4.0794-1.4452-8.1848-2.0625-12.281 2.0192 1.164 5.1169-0.43433 4.3438-3.5312-4.1539-16.639-9.2677-33.162-8.2812-50.5-1.0004-15.888-2.7103-31.65-5.25-47.375-0.090149-0.88614-0.18799-1.7705-0.28125-2.6562 0.50811-5.8404 1.0688-11.684 1.75-17.5zm76.656 43.906c-3.1118 9.0791-6.4504 18.096-11.062 26.531-6.0664 12.088-11.982 24.234-17.812 36.438-1.5702 3.2866 1.5366 6.1223 3.9375 5.3125-3.0415 4.7402-6.2964 9.3516-9.8438 13.781-3.0688 4.137-6.1074 8.2958-9.125 12.469-1.4575-5.2484-2.8516-10.537-4.125-15.844-0.52344-1.9634-1.0002-3.9385-1.5-5.9062 5.1154-8.0724 10.295-16.12 15.562-24.094 10.755-16.648 22.939-32.26 33.969-48.688zm-2.5 23.625c-0.58673 1.6262-1.1912 3.2499-1.7812 4.875-5.0799 11.398-10.43 22.708-16.75 33.438 5.0086-10.947 10.225-21.772 15.562-32.562 1.0482-1.8826 2.0397-3.8156 2.9688-5.75zm20.594 27.438c-2.0854 8.7912-4.2037 17.58-6.4062 26.344-9.2064 15.5-18.613 30.88-29.094 45.562-4.2874 4.4299-8.807 8.6216-13.688 12.5-0.21393-0.63254-0.41193-1.2734-0.625-1.9062 12.92-17.695 25.748-35.463 37-54.312 4.822-9.1498 8.9096-18.619 12.812-28.188zm-71.688 28.125c0.082214 0.31262 0.16724 0.625 0.25 0.9375 0.049927 0.20956 0.10601 0.41553 0.15625 0.625-0.34882-0.20334-0.74811-0.31988-1.1562-0.34375 0.25225-0.40344 0.49738-0.81555 0.75-1.2188zm25.281 4.3125c-4.0583 7.3549-8.2338 14.667-12.438 21.938-0.37415-1.25-0.75885-2.4975-1.125-3.75 3.9096-5.3922 7.8776-10.734 11.875-16.062 0.57391-0.70236 1.1285-1.4135 1.6875-2.125zm-24 0.8438c1.329 5.3378 2.7442 10.656 4.25 15.938-3.63 5.085-7.2121 10.195-10.75 15.344-1.766-4.9455-3.4967-9.9143-5.125-14.906 3.8117-5.3762 7.6423-10.729 11.469-16.094 0.066101-0.092682 0.10211-0.18869 0.15625-0.28125zm-15.969 22.562c1.6758 5.0116 3.4306 9.9944 5.2188 14.969-6.1289 9.0717-12.1 18.251-17.875 27.562-7.5778 11.698-14.768 23.619-22.188 35.406-1.0753-1.5168-3.5864-1.9897-4.9688 0.21875-2.4489 3.9121-4.8949 7.8066-7.3438 11.719-11.777 22.518-22.629 45.532-31.25 69.406 0.054317-0.68817 0.10162-1.3746 0.15625-2.0625 3.1361-19.055 12.69-35.608 21.188-52.594 12.339-27.106 28.929-51.735 45.688-76.219 2.926-4.172 5.8553-8.328 8.7812-12.5 2.3039-3.285-2.3237-6.5367-4.625-3.25-2.9342 4.1905-5.8784 8.372-8.8125 12.562-3.3098 4.8245-6.6145 9.643-9.875 14.5 3.7944-6.2448 7.6064-12.478 11.344-18.75 4.7681-7.0499 9.6614-14.01 14.562-20.969zm22.312 0.5c0.46198 1.546 0.93298 3.0825 1.4062 4.625-1.3167 2.2534-2.6429 4.5016-3.9688 6.75-1.3526-0.2746-2.8868 0.22376-3.75 1.9375-0.91119 1.8092-1.8281 3.6028-2.75 5.4062-0.45807-1.2603-0.91785-2.5207-1.375-3.7812 3.4328-5.0127 6.9042-9.9943 10.438-14.938zm3.5625 11.438c1.4704 4.6334 2.9604 9.2633 4.5 13.875-3.3243 4.5392-6.6352 9.0995-9.9375 13.656-1.31-3.8643-2.6533-7.7221-4.0312-11.562 3.1708-5.3208 6.3301-10.631 9.4688-15.969zm-18.25 9.75c0.26826 0.74036 0.54437 1.4783 0.8125 2.2188-0.66095 0.21744-1.3049 0.64108-1.8125 1.4375-11.223 17.61-20.098 36.436-27.812 55.75-9.5756 16.35-19.108 32.733-28.219 49.344 10.836-22.794 22.764-45.031 34.312-67.562 0.9212-1.7973 0.28009-3.3412-0.90625-4.1562 2.7045-4.3716 5.4464-8.7296 8.2188-13.062 4.9667-8.1038 10.114-16.083 15.406-23.969zm24.875 10.5c0.021179 0.062378 0.041321 0.12512 0.0625 0.1875-0.22015 0.20746-0.43701 0.4166-0.65625 0.625 0.19806-0.27109 0.39569-0.54144 0.59375-0.8125zm-20.219 2.5938c1.2664 3.5901 2.5565 7.1658 3.75 10.781-2.2347 3.1232-4.4644 6.252-6.6562 9.4062-1.5576 2.3417-3.0828 4.7107-4.625 7.0625-2.2316 2.4792-4.4773 4.9337-6.75 7.375-1.2117 1.3016-1.1763 2.748-0.53125 3.8438-8.7509 13.607-17.319 27.311-25.844 41.062 1.1144-3.1694 2.2524-6.3129 3.4062-9.4688 3.0527-6.2893 6.1755-12.56 9.375-18.781 7.8306-15.288 16.072-30.345 24.375-45.375 1.1742-1.9625 2.327-3.9435 3.5-5.9062zm22.188 4.5938c-3.0601 4.3672-6.1075 8.7498-9.1562 13.125-0.33118-0.90781-0.65515-1.8155-1-2.7188 3.3442-3.5091 6.7246-6.9826 10.156-10.406zm2.625 6.2188c2.5232 7.3036 5.0644 14.625 7.5625 21.938 11.165 30.631 20.632 61.726 27.875 93.5-0.50061 0.19745-1.0022 0.38611-1.5 0.59375-3.0822 1.2855-2.4618 4.6615-0.3125 5.875-1.8984 0.5766-3.7708 1.1997-5.6562 1.8125-2.7371-9.7477-5.4406-19.504-8.3125-29.219-5.4243-13.957-10.704-27.95-16.594-41.719-4.761-12.873-8.206-26.199-12.531-39.219 3.1458-4.5226 6.3029-9.0537 9.4688-13.562zm-17.438 9.1562c0.47376 1.3013 0.9267 2.6278 1.375 3.9375-7.6509 11.028-15.26 22.074-22.688 33.25-12.222 17.366-24.541 34.676-36.688 52.094 0.47839-1.5081 0.95184-3.0254 1.4375-4.5312 0.28558-0.5033 0.58972-0.99652 0.875-1.5 13.805-22.815 27.692-45.588 42.156-68 4.3798-5.1999 8.9149-10.272 13.531-15.25zm3.5938 10.719c3.682 11.686 6.8021 23.556 11.031 35.062 5.9058 13.796 11.048 27.885 16.469 41.875 2.8589 9.632 5.5444 19.298 8.25 28.969-3.543 1.2684-7.028 2.6265-10.469 4.1562-11.633 5.2417-23.595 10.126-33.312 18.656-10.678 9.5477-20.358 19.463-27.156 32.312-4.0712 8.6899-7.7929 17.343-10.125 26.344-1.7398-0.34247-3.7632 0.75098-3.7188 3.25 0.07476 4.1989 0.15924 8.3952 0.28125 12.594-0.75306 2.1857-1.4416 4.4096-2.0625 6.6562-4.9031 18.5-5.9828 36.014 4.5938 52.75 8.3394 9.7606 16.872 17.243 28.125 22.75 8.538 6.8353 17.557 11.688 28.25 14.656 1.4756 0.40955 2.7015-0.05304 3.5312-0.84375 7.8408 1.4227 15.502 1.8688 23 0.90625 11.624 1.9505 23.576-0.069336 35.281-1.0625 16.576-5.4537-0.023682-7.5845-10.281-8.5312-1.1861 0.005798-2.3501-0.028015-3.5-0.0625-0.40064-2.0713-2.7491-3.8076-5.2812-2.2812-1.003 0.60461-1.9913 1.1309-3 1.625-1.3721-0.1878-2.7275-0.41705-4.0625-0.6875-0.32501-0.59753-0.86871-1.116-1.6875-1.5-2.3337-1.0944-4.583-2.3286-6.75-3.6562 9.1823 0.044189 18.379-0.029297 27.562 0.1875 4.7122 0.11127 4.7134-6.6837 0-6.6562-12.146 0.070801-24.294 0.41156-36.438 0.21875-3.7995-2.9827-7.4356-6.1776-11.031-9.4375-6.8909-8.2926-13.061-17.196-19.375-25.938-6.9102-10.823-10.048-23.181-13.562-35.344-0.22961-0.79474-0.63886-1.3972-1.125-1.8125-0.12505-2.6029-0.19872-5.2332-0.25-7.8438 0.031616-1.5315 0.060547-3.0623 0.09375-4.5938 1.6612 0.85498 4.0627 0.20538 4.5-2.4062 1.3341-7.967 2.6438-15.934 5.3125-23.594 4.9415-10.942 10.616-20.578 20.5-28 8.3996-6.5394 17-12.817 26.281-18.062 2.68 10.449 4.4288 21.045 7.25 31.5 4.7882 15.02 10.911 29.466 17.594 43.688 6.9955 13.777 12.121 28.275 18.875 42.188 8.023 13.506 12.763 28.62 18.094 43.312 5.4882 15.641 10.193 31.517 15.5 47.219 0.14038 0.4154 0.26495 0.8349 0.40625 1.25-2.3886 1.1563-4.7775 2.3245-7.1875 3.4375-0.042236 0.019531-0.082764 0.04303-0.125 0.0625-18.188 5.6794-36.721 10.047-55.656 11.906-2.1699-0.15533-4.3541-0.60309-6.625-1.5-6.1451-0.26709-12.341-0.60144-18.531-0.4375-16.33-3.3015-32.478-7.9924-48.531-12.344-15.036-8.1871-27.984-19.886-41.812-30.094-11.225-9.8574-21.828-20.576-31.562-32-0.039371-0.14679-0.085819-0.29059-0.125-0.4375-8.4025-31.001-10.831-62.079-6.5938-93.844 3.5049-21.821 11.872-42.177 22.438-61.375-4.9681 16.825-9.8768 33.656-15.094 50.406-1.1317 3.6333 4.1248 5.1942 5.1562 1.5312 6.3661-22.606 12.549-45.281 19.281-67.781 15.417-22.728 31.349-45.109 47.25-67.5 6.5666-10.044 13.303-19.968 20.125-29.844zm-58.781 25.156c-12.607 25.977-25.572 51.72-36.156 78.688-3.3421 8.8467-6.0045 17.913-8.5625 27-3.09 7.9395-6.0197 15.926-8.7812 24 0.17315-4.6532 0.4165-9.2935 0.71875-13.938 1.697 0.33136 3.7117-0.51813 4.25-2.875 1.0217-4.4733 1.7932-8.9773 2.4688-13.5 0.36731-0.41791 0.68878-0.93091 0.84375-1.625 6.679-29.919 18.625-58.058 32.688-85.125 1.295 1.3913 3.5644 1.7123 4.9688-0.5 2.5525-4.0212 5.0632-8.0737 7.5625-12.125zm-34.594 19.844c-8.4152 18.469-15.98 37.31-19.812 57.375-3.3414 21.288-4.8187 42.7-5.0938 64.188-1.7064-1.2149-4.6461-0.32001-4.5938 2.5938 0.12829 7.1349 0.2995 14.273 0.53125 21.406-0.29706 1.4854-0.58948 2.9576-0.84375 4.4375-1.1511-8.3146-1.4263-16.794-1.2812-25.406 0.31878-16.654 2.1475-33.078 4.7188-49.5 3.0295-17.65 9.6068-34.332 15.219-51.25 2.4823-8.5463 6.5746-16.334 11.156-23.844zm29.938 14.344c-4.9962 11.074-9.816 22.226-14.5 33.438-3.4902 5.8227-7.0952 11.57-10.906 17.188 3.8622-8.8671 7.9451-17.638 12.281-26.312 4.2404-8.1838 8.6298-16.272 13.125-24.312zm206.53 30.812c1.023 0.077942 2.0317 0.1662 3.0312 0.28125 0.087219 0.49829 0.33154 0.98047 0.65625 1.4375-1.1565-0.487-2.3521-0.90216-3.5625-1.3125-0.039917-0.13684-0.066223-0.27624-0.125-0.40625zm14.75 2.625c15.923 4.5702 28.713 14.421 40.062 28.188 0.43585 0.56293 0.82513 1.1516 1.25 1.7188-1.7683 2.0201 0.50696 4.744 3.375 4.6875 13.225 19.332 20.63 40.901 25.219 63.844 0.2265 2.4399 0.4411 4.8997 0.625 7.3438-0.018494 8.4334-0.44958 16.852-1.3125 25.281-0.075195 0.64911-0.16431 1.2906-0.25 1.9375-0.65869-0.79108-1.6522-1.2607-2.625-1.2812 0.061035-12.647-1.2708-25.247-4.9062-37.594-0.39447-1.3396-1.2422-2.07-2.1875-2.3125-0.83087-3.0124-1.7533-6.0162-2.8125-8.9688-1.6545-9.5677-4.2618-18.713-8.2188-27.219 2.4458 1.5555 6.2073-0.34534 4.8438-3.8125-4.4805-11.393-11.333-19.118-19.906-24.656-0.30743-0.53229-0.79944-0.98035-1.5312-1.3438-1.8632-0.92523-3.7607-1.8002-5.6562-2.625-0.16998-0.080994-0.32898-0.17017-0.5-0.25-0.37311-0.16046-0.75073-0.31201-1.125-0.46875-1.6068-0.71826-3.2521-1.4327-4.9375-2.0625-4.9089-4.8028-10.281-9.0524-16.406-12.75-3.1852-2.5896-6.6046-4.8824-10.281-6.7812 0.185-0.01062 0.37018 0.002502 0.5625-0.03125 2.2969-0.4035 4.5325-0.66345 6.7188-0.84375zm18 1.1875c2.5861 0.60541 5.1058 1.3957 7.5625 2.375 0.38977 1.0434 1.1916 2.022 2.4688 2.5938 9.8355 4.4033 17.275 11.142 23 19.375-1.4446 0.26007-2.975 0.74676-4.5938 1.4375-0.61029-0.83575-1.211-1.6727-1.8438-2.5-7.9905-9.7246-16.703-17.607-26.594-23.281zm-55.375 1.6562c2.4712-0.027771 4.9052 0.087036 7.2812 0.34375 2.1356 0.63666 4.2532 1.2769 6.4062 1.875 3.682 1.4747 7.2809 3.1468 10.812 4.9375-6.4268-0.67261-12.422-2.7268-18.812-5-3.3757-1.424-6.7474-1.921-10.125-1.9062 0.69891-0.057861 1.3956-0.12811 2.0938-0.1875 0.78748-0.039001 1.5672-0.053772 2.3438-0.0625zm-10.375 0.7188c-4.4406 0.66443-8.9197 1.869-13.438 2.75-2.0796 0.26215-4.1392 0.51904-6.2188 0.78125-4.5203 0.56988-3.7081 6.9418 0.8125 6.375 2.1757-0.27283 4.3243-0.53967 6.5-0.8125 8.5579-1.57 17.292-4.8222 25.656-1.6562 0.50159 0.20642 1 0.39679 1.5 0.59375-0.029114 0.35657-0.037598 0.71765 0.0625 1.0625-1.5154 1.4749-1.0322 4.5779 1.875 4.8438 21.218 1.94 10.584 0.76624 31.938 3.4688 0.96979 0.23438 1.919 0.47473 2.875 0.71875 2.1569 0.62543 4.28 1.3085 6.4062 2.0312 0.28961 0.19098 0.58588 0.37091 0.875 0.5625 3.6056 4.4036 6.9188 9.1373 10.125 13.938 14.834 22.871 20.706 48.688 23.781 75.344 2.0053 19.346 1.0606 38.653-0.875 57.938-0.075806 0.755 0.065002 1.371 0.34375 1.875-4.1737 6.2424-8.7024 12.299-13.375 18.25-8.5862 10.578-19.454 17.889-30.938 24.844-1.6623 1.0066-1.8622 2.6405-1.25 3.875-2.8273 1.3748-5.7112 2.5826-8.7812 3.4688-7.3345 3.0129-14.37 6.6843-21.906 9.1875-0.94366 0.44049-1.8736 0.89526-2.8125 1.3438-2.0388-5.9617-3.9582-11.97-5.875-17.969-1.062-3.8848-2.0695-7.7732-2.9375-11.719-9.6091-33.392-20.46-66.355-31.625-99.25-8.9554-30.665-17.778-61.421-25.438-92.438 3.5955-1.0614 7.2031-2.1033 10.781-3.1875 13.66-3.8242 27.825-5.075 41.938-6.2188zm-57.969 10.969c7.597 31.025 16.496 61.754 25.469 92.406 4.1436 12.163 8.2333 24.326 12.219 36.531-0.21735-0.37592-0.43402-0.7514-0.65625-1.125-6.6948-13.944-11.76-28.49-18.812-42.25-6.5532-13.805-12.493-27.862-17.062-42.5-2.8596-10.929-4.5035-22.039-7.5938-32.875 0.43604-0.21649 0.87311-0.41382 1.3125-0.625 4.2572-2.046 1.2252-8.1415-2.9688-5.9688-0.062195 0.032166-0.12537 0.061462-0.1875 0.09375-0.094421-0.3327-0.18701-0.6673-0.28125-1 2.8447-0.93549 5.6932-1.8207 8.5625-2.6875zm-14.625 4.7812c0.19397 0.68866 0.39911 1.374 0.59375 2.0625-4.5832 2.639-9.0279 5.509-13.375 8.5 0.48425-2.0446-0.73059-4.2331-2.9062-4 2.0936-0.94995 4.1999-1.8862 6.2812-2.8438 3.0929-1.3376 6.2357-2.5767 9.4062-3.7188zm-126.47 9.25c0.13598 0.54651 0.44848 0.99078 0.84375 1.3438-7.8101 16.191-13.845 33.137-16.531 51.125-3.6954 28.582-2.4128 56.594 3.6875 84.531-1.1108-1.4334-2.2305-2.8596-3.3125-4.3125-5.4102-21.295-7.6654-43.156-8.3438-65.406-0.06336-4.7512-0.055481-9.5052-0.03125-14.25 2.4969-8.0311 5.117-15.992 7.9062-23.906 1.2239-0.057922 2.4151-0.80713 2.8125-2.4688 1.1627-4.8614 2.3102-9.7379 3.5-14.594 0.81213-2.1074 1.6332-4.2145 2.4688-6.3125 1.2543 0.54114 2.801 0.32367 3.9062-1.25 1.0488-1.4933 2.0676-2.993 3.0938-4.5zm99.812 2.5625c-5.3456 4.2681-10.474 8.7674-15.969 12.844-4.5364 3.8932-9.2064 7.661-12.594 12.656-0.006287-0.6012-0.22131-1.1309-0.5625-1.5625 4.4569-5.0604 9.3807-9.7154 14.5-14.312 4.4804-3.8525 9.4438-6.9153 14.625-9.625zm200.56 0.5938c0.45666-0.016479 0.87897 0.014526 1.3125 0.0625 2.0337 3.6787 3.8309 7.5612 5.375 11.625 1.3809 5.0413 2.5952 10.121 3.6875 15.219-3.707-9.0875-8.1888-17.878-13.719-26.25 1.1718-0.4054 2.2994-0.61859 3.3438-0.65625zm-191.41 1.4688c-3.5839 2.5763-7.1196 5.1916-10.625 7.875-0.62079 0.4635-1.222 0.95709-1.8125 1.4375 2.8032-2.3524 5.5734-4.7443 8.4375-7.0312 0.90082-1.7839 2.4476-2.0453 4-2.2812zm176.19 6.3438c1.8744 2.1176 3.5629 4.4835 5.0625 7.125-1.5358-2.4481-3.2216-4.8229-5.0625-7.125zm-188.84 3.1562c-3.1646 2.6024-5.9123 5.4247-8.3438 8.4688 1.3141-1.6279 2.6741-3.2416 3.9375-4.9062 1.4731-1.1849 2.9576-2.348 4.4062-3.5625zm218.16 5.4062c1.9096 6.1003 3.1289 12.776 4.125 17.969-0.11481-0.005981-0.2287 0.026001-0.34375 0.03125-1.0991-6.0224-2.3474-12.041-3.7812-18zm-226.66 3.25c-0.77393 0.97662-1.5029 1.9838-2.2188 3 0.69238-1.0421 1.4357-2.0236 2.2188-3zm196.28 5.0312c3.3523 6.4184 6.416 12.986 9.4062 19.594 2.1087 4.4014 3.8375 8.891 5.2812 13.469 0.87622 6.4308 1.3685 13.025 1.625 19.719 0.08551 2.2312 1.9491 3.0903 3.4688 2.6562 0.49097 3.0467 0.94183 6.1166 1.3438 9.1875 1.4839 8.6628 1.5438 17.028 0.75 25.344-2.442 5.9667-5.3359 11.706-8.5625 17.25 1.3806-16.885 1.891-33.789 0.21875-50.719-2.3062-19.554-6.074-38.616-13.531-56.5zm-212.03 11.469c-0.51092 1.277-1.0246 2.5539-1.5 3.8438-0.31561-0.035339-0.63184-0.025085-0.9375 0.03125 0.79987-1.3016 1.614-2.5894 2.4375-3.875zm-5.2812 8.6875c-0.59112 2.295-1.3625 4.5928-0.9375 7-0.012207 1.0933-0.017944 2.188-0.03125 3.2812-0.32819 1.2338-0.66083 2.4668-0.96875 3.7188-1.6174 12.596-1.732 24.938 0.53125 37.594 0.34069 1.9051 1.6489 2.8383 3.0312 2.9688 0.28436 1.0977 0.59106 2.1919 0.9375 3.2812 4.0165 10.286 9.1786 19.775 16.219 28.469 5.6706 7.225 11.258 14.554 17.281 21.5-1.0282-0.067261-2.035-0.12915-3.0312-0.25-7.4673-4.5107-14.25-10.239-20.562-17.281-3.6747-6.7971-5.6326-14.447-8.0312-21.906-0.92162-2.8661-3.881-3.0419-5.3438-1.5312-5.332-14.447-6.7607-29.988-6.625-46.188 0.00647-0.77307-0.18567-1.3767-0.53125-1.8438 2.623-6.068 5.1628-12.164 7.75-18.25 0.10352-0.18811 0.20789-0.37512 0.3125-0.5625zm256.47 20c0.46497 0.34216 1.0349 0.50018 1.5938 0.46875 0.52411 2.0593 0.99506 4.1376 1.4062 6.2188 0.20984 4.2733 0.32983 8.5731 0.375 12.906 0.014709 1.4127 0.79773 2.2631 1.75 2.5625 0.42529 5.1396 0.59143 10.33 0.59375 15.531-1.0465-2.0127-4.1933-2.2582-5.5625-0.125 0.54523-5.789 0.75928-11.653 0.5625-17.656-0.16534-3.2436-0.3877-6.5112-0.625-9.75 0.029236-3.3848-0.013489-6.771-0.09375-10.156zm-269.34 11.031c0.75153 22.003 5.1443 42.613 19.031 60.906 1.4916 2.9084 3.2167 5.7189 5.25 8.3438-3.3516-1.8466-6.5848-3.9536-9.8125-6.2188 1.2253-1.2634 1.5489-3.4464-0.34375-5.0312-15.086-12.632-19.04-26.749-18.531-43.688 0.4239-1.3854 0.85419-2.7722 1.25-4.1562 0.82196-3.4468 1.9357-6.8317 3.1562-10.156zm274.75 32.75c-1.4311 16.438-7.7529 31.045-15.594 45.5-1.1288 1.2363-2.2766 2.4402-3.4375 3.6562-3.587 3.2382-7.0673 6.6252-10.562 9.9688 1.5885-2.7512 3.0864-5.5284 4.4062-8.375 3.2017-4.3128 6.2238-8.7376 9.25-13.188 6.3351-8.9213 10.58-18.77 14.219-29 0.98267-2.7793 1.3361-5.6712 1.7188-8.5625zm-14.594 2.7812c-0.6214 3.0274-1.3143 6.0312-2.0625 9.0312 0.16998-1.6417 0.30054-3.2627 0.4375-4.9062 0.56525-1.3583 1.1047-2.7417 1.625-4.125zm-335.75 19.5c0.48803 0.66644 1.0064 1.306 1.5 1.9688 2.556 9.7582 5.7506 19.391 9.7188 28.906 0.33563 0.90027 0.6911 1.7898 1.0312 2.6875-3.7424-6.2912-6.7802-12.83-9.2812-19.562-1.229-4.6096-2.2012-9.2789-2.9688-14zm324.25 4.0312c-0.14447 0.64343-0.25665 1.2926-0.40625 1.9375-0.92828 2.7472-2.0498 5.3085-3.2812 7.75-5.8223 7.4252-11.717 14.805-17.781 22.031-2.558 2.2738-5.2297 4.4959-8 6.6875-0.07373 0.039978-0.14502 0.085022-0.21875 0.125 3.4102-3.0359 6.6089-6.3123 9.5625-9.9688 7.2545-9.1949 14.176-18.618 20.125-28.562zm-243.38 5.125c11.57 8.5794 23.125 15.987 37.344 18.188 1.2717 0.55872 2.5478 1.0587 3.875 1.5 5.9559 3.3209 12.323 5.9849 19.188 8.0625-0.84235 0.26605-1.4203 0.91882-1.7188 1.7188-4.6782-0.040527-9.4431-0.50024-14.312-0.96875-8.2958-1.6837-15.403-4.8621-21.938-8.9688-0.17151-0.84387-0.78656-1.6292-2-2.0938-0.93335-0.3573-1.8534-0.71521-2.75-1.0938-5.167-3.741-10.059-8.0397-14.969-12.625-0.97382-1.2178-1.8852-2.4487-2.7188-3.7188zm-69.969 4.7812c0.68542 0.8316 1.3683 1.6753 2.0625 2.5 1.1031 4.1868 2.2714 8.3366 3.5625 12.438-2.0997-4.9335-3.9495-9.9281-5.625-14.938zm11.25 12.938c7.5894 8.256 15.598 16.133 23.969 23.531 14.35 10.749 27.77 23.3 43.875 31.156 6.3945 1.6594 12.799 3.3974 19.219 5.0938-1.2227-0.23358-2.4412-0.50464-3.6562-0.8125-7.3361-1.9284-14.728-3.4536-22.125-4.9688-7.4182-4.3872-14.588-9.0292-21.688-13.906-9.228-6.6041-16.828-14.863-24.219-23.375 0.80304-0.84058-8.4828-8.7003-8.5312-8.75-1.4796-1.5208-3.1501-1.2865-4.25-0.28125-0.92609-2.5356-1.7657-5.1077-2.5938-7.6875zm5.7188 15.625c1.8417 1.4842 3.6568 2.9879 4.7188 5.25 7.6079 8.778 15.445 17.311 24.812 24.281-1.5415-0.93408-3.0967-1.8527-4.7188-2.7188-7.4427-2.9517-9.8175-3.039-10.688-1.7188-5.8119-7.8612-10.39-16.284-14.125-25.094zm282.97 2.2188c0.16894 0.25812 0.38806 0.49084 0.625 0.6875-1.6355 1.4199-3.2925 2.7906-5 4.125-0.74603 0.47095-1.5024 0.93793-2.25 1.4062 2.2493-2.0354 4.4343-4.1188 6.625-6.2188zm-285.88 19.531c0.2528 0.33148 0.49481 0.67023 0.75 1 0.21972 0.45203 0.46545 0.89282 0.6875 1.3438-0.47608-0.77856-0.97626-1.5573-1.4375-2.3438zm1.8125 3.1562c0.65588 1.3216 1.3546 2.626 2.0312 3.9375-0.62903-0.95288-1.2601-1.8947-1.8438-2.875-0.01453-0.34448-0.05146-0.69635-0.1875-1.0625zm16.562 9.0938c5.6616 3.0782 11.836 4.7908 18.094 6.25 3.9484 2.8491 7.6798 5.9568 11.219 9.5938 6.0527 3.7218 11.903 8.0543 18 11.75-6.1254-0.80664-12.209-1.8416-18.281-3.0312 1.683-1.6071 1.558-4.8878-1.5625-5.6562-6.2801-1.5466-12.218-3.6775-17.938-6.2812-3.0159-4.3202-6.2518-8.4943-9.5312-12.625zm187.84 7.0312c0.77478 2.3539 1.5413 4.7076 2.3125 7.0625-6.6791-0.42139-12.589 2.2901-18.844 4.5938-9.1946 3.9404-18.932 5.6047-28.75 6.9688-1.7988 0.28656-3.5762 0.55719-5.375 0.84375 4.4498-2.2169 8.988-4.2552 13.438-6.4688 8.1918-2.2772 15.764-6.0308 23.375-9.7188 4.6169-1.0906 9.2266-2.1933 13.844-3.2812zm-156.19 2.2188c1.8989 0.39398 3.7899 0.79987 5.6875 1.1875 6.6056 3.5203 13.66 6.3221 19.531 11.031 2.036 2.3193 3.9908 4.5942 6.0625 6.6875-10.986-3.7728-20.287-11.648-30.156-17.812-0.36853-0.37457-0.75367-0.72736-1.125-1.0938zm28.219 6.1875c0.2392 0.062378 0.47968 0.12427 0.71875 0.1875 10.281 2.6319 20.851 2.6924 31.375 2.6562 2.615-0.1759 5.2272-0.24994 7.8438-0.25 1.3646 0.24609 2.7264 0.46515 4.0938 0.6875-9.7976 4.5167-19.951 7.4974-30.562 9.4375-4.4161-2.7657-7.6776-6.592-11.188-10.781-0.74609-0.67615-1.4924-1.3232-2.2812-1.9375zm74.625 3.625c0.59839 0.27924 1.3378 0.38238 2.1875 0.1875-1.2108 0.59094-2.4262 1.1582-3.625 1.7812-6.603 2.3784-13.217 4.9672-20.062 6.8125-8.2747 2.0529-16.218 4.4969-24.812 3.5 9.5938-3.0071 18.841-7.2311 28.062-11.625 0.54242-0.039673 1.0831-0.081421 1.625-0.125 5.5173 1.1509 10.926 0.15503 16.625-0.53125zm-79.531 116.31c10.234-0.038635 20.991 3.3152 32.094 10.469-6.7156-0.13232-13.443 0.028992-20.156 0.53125-7.7901-3.5404-15.484-5.4228-25.031-2.8438-9.2211 3.1405-18.355 6.5843-26.906 11.312 11.924-12.516 25.44-19.414 40-19.469zm156.44 12.375c0.28009 0.37964 0.63916 0.67786 1.0312 0.875-1.1084 20.619-4.8767 41.047-10.125 61.031-7.121 26.471-14.988 52.285-31.469 74.469-6.1426 8.175-13.295 14.548-21.125 19.812 2.0326-1.9965 2.5589-2.745 9.0312-10.094 13.496-15.508 25.441-31.964 33.094-51.219 0.87305-2.2388 1.3118-4.6097 1.4062-6.7188 1.4254-3.5531 1.0205-4.024-0.15625-3.1562-0.67279-4.0549-3.1987-5.1974-6.7188 2.4062-3.2314 6.9706-6.2934 13.979-10.875 20.062 2.3546-3.4067 3.7264-5.9624 2.4062-8.3125 8.2691-15.37 14.705-31.589 20.406-48.187 5.3534-16.71 10.556-33.564 13.094-50.969zm-130.75 4.5625c4.0601-0.012268 8.1334 0.10254 12.188 0.3125 0.9809 0.29974 1.8662 0.63458 2.7188 1 9.1687 11.59 13.756 23.639 14.719 35.688-2.8803-7.5848-7.9601-13.762-15.531-18.531-4.2277-7.2352-8.7284-13.986-16.25-18.438 0.71838-0.009888 1.4379-0.029053 2.1562-0.03125zm-55.875 4.9062c-0.060249 0.046326-0.12732 0.078247-0.1875 0.125-11.236 9.7008-20.696 19.336-24.812 34.219-0.77386 3.1031-1.4551 6.1819-2.0625 9.2812-1.4061 0.74036-3.1982 2.1444-5.4062 4.2812-1.4555 3.5563-2.6399 7.1788-3.625 10.812 2.0335-15.229 6.7639-30.102 14.156-45.125 3.8548-2.8834 7.8428-5.5975 11.812-8.3438 3.2903-1.9322 6.6867-3.6517 10.125-5.25zm41.25 3.1562c1.2905 0.86627 2.5284 1.75 3.7188 2.6875-4.3119-0.41797-8.5708-0.51843-12.75-0.25-0.24012 0.00769-0.47723-0.012451-0.71875 0 2.89-1.1646 6.1271-1.9869 9.75-2.4375zm20.969 13.031c0.92273 0.45392 1.8021 0.91858 2.6562 1.4062 1.4434 2.5328 2.8442 5.1255 4.375 7.6875 0.40808 0.7547 0.79553 1.4784 1.125 2.2188-1.5702-2.1108-3.2454-4.1198-5-6.0312-0.96875-1.8102-2.0184-3.5663-3.1562-5.2812zm-10.219 1.7188c3.2686 2.0824 6.2728 4.6406 9.0312 7.5938 0.62482 1.2269 1.2052 2.4846 1.75 3.75-3.3171-4.0821-6.7507-8.0104-10.781-11.344zm-21.25 0.0625c4.0277 0.015137 8.202 0.45813 12.5 1.25 8.062 4.8232 13.525 12.208 19.188 19.469 1.1547 1.4805 2.6868 1.6011 3.875 1 1.1677 4.6049 1.9042 9.3591 2.25 14.188-1.0953 2.375-2.3484 4.7658-3.6562 7.2188 0.28241-3.1052 0.31183-6.5078 0.03125-10.219-6.3345-20.63-25.371-38.846-44.562-18.812-3.167 5.6249-5.5865 11.371-7.0938 17.125-0.1222 0.13397-0.18689 0.2066-0.3125 0.34375-1.7083 4.1274-3.0386 8.2734-4.0312 12.375-0.05365-0.35046-0.104-0.71704-0.15625-1.0625-0.27808-13.384 0.7373-26.464 5-36.812 1.062-1.4811 2.2282-2.9239 3.5-4.3125 4.2925-1.2116 8.7869-1.7676 13.469-1.75zm-62.156 3.6875c-10.567 25.303-13.932 50.376-9.6562 77.75 0.32653 8.1089 1.5766 16.137 3.0938 24.188 1.1191 3.2262 2.6004 6.0939 4.3125 8.75 3.9216 13.806 9.2236 27.059 17.719 38.562-9.097-4.6335-15.73-12.602-22.438-20.469-5.8638-9.1639-9.7614-19.42-14.531-29.188-5.2691-7.6643-7.5143-16.25-9.8438-25-0.8349-7.6627 0.11242-15.184 1.375-22.719 1.8193-7.3483 5.088-14.002 8.3125-20.781 4.9729-8.8072 10.732-17.106 16.656-25.281 1.5352-2.08 3.2209-4.0082 5-5.8125zm38.219 2.625c-8.665 14.378-9.963 31.579-6.6875 50.312 2.1786 10.274 5.2162 21.447 10.625 30.188-2.9618 0.3075-5.5134-0.16382-7.8438-1.25-4.3085-4.0464-7.3693-9.555-10.75-16.031-5.8388-18.834-4.2352-36.556 3.6875-53.906 3.4442-3.8762 7.1047-6.9575 10.969-9.3125zm83.281 2.7188c2.806 8.4277 5.1292 17.023 7.6562 25.531 3.8038 13.254 1.4815 24.024-4.1562 35.937-8.9392 12.46-20.488 18.573-34.594 22.781-1.1236-0.043091-2.2511-0.057251-3.375-0.09375 17.022-13.462 27.014-33.677 32.562-55.437 0.017395-0.22394 0.046997-0.43372 0.0625-0.65625 2.4891-9.2565 3.2228-18.68 1.8438-28.062zm-51.531 3.1875c9.8992-0.027954 16.937 9.6884 20.5 22.438 0.24829 4.9448-0.12097 9.4342-1.125 13.312-0.61981-17.267-5.2365-28.875-22.688-27.688 1.0206-0.3548 2.0454-0.69006 3.4062-1.1875 3.9708-1.4514 1.5704-7.2746-2.2812-5.5312-7.1214 3.2233-9.8416 4.1278-11.656 5.25 0.3125-0.56036 0.60767-1.1309 0.9375-1.6875 4.715-3.3912 9.0326-4.8953 12.906-4.9062zm39.688 0.625c3.565 6.6525 4.7498 14.766 3.9375 24.438-1.0931 4.2571-2.4023 8.4634-3.875 12.594-5.1824 11.022-12.834 21.577-22.188 31.281-3.6697 2.0974-7.0872 3.7368-10.281 4.9375 0.59967-0.2771 1.1958-0.53003 1.8125-0.84375 19.876-13.763 34.003-34.437 30.656-58.594 0.93823-4.5128 1.0317-9.0845-0.0625-13.812zm-49.031 9.625c-6.7067 11.417-10.556 23.078-5.9688 33.969-0.16724 0.97852 0.1908 1.9739 1.2812 2.5625 1.9778 3.571 4.9033 7.0604 9.0312 10.406 3.4486-0.073975 6.6282-0.40649 9.5312-1-1.6188 1.3645-3.2787 2.6871-4.9688 3.9688-3.2111-0.42737-6.5962-1.2722-10.125-2.4375-10.458-11.321-12.462-24.463-9-37.406 7.1749-7.4149 7.5853-8.8659 10.219-10.062zm5.3438 3.0625c14.506-0.20465 17.718 8.8593 17.094 21.375-6.6136 11.15-11.899 11.239-22.25 7.1874-4.2419-9.5904-1.5998-18.587 5.1562-28.562zm23.281 22.781c-2.7412 10.108-9.9641 15.99-22.406 14.969-0.49952-0.57434-0.95618-1.1511-1.4062-1.7188 10.245 1.9866 16.849-0.26379 23.812-13.25zm10.719 0.75c-0.054749 0.8186-0.11304 1.6192-0.1875 2.4375-4.4838 12.852-11.495 19.13-20.406 20.75 7.8622-6.7295 14.864-14.39 20.594-23.187zm-56.156 3.9062c1.6498 7.9065 5.6718 15.49 12.594 22.406 1.8476 0.95776 3.6869 1.7372 5.5 2.375-1.9096 1.2508-3.8434 2.4609-5.8125 3.625-6.6944-3.8401-10.422-12.715-12.812-22.281 0.082825-1.9962 0.23645-4.0455 0.53125-6.125zm32.875 26.594c-0.33661 0.22852-0.65961 0.46374-1 0.6875-4.2597 2.0376-7.9884 3.0186-11.25 3.125 1.8712-1.2151 3.6877-2.4879 5.5-3.7812 2.3108 0.24182 4.5601 0.22656 6.75-0.03125zm92.062 6.5c-5.2427 7.1061-11.217 12.404-18.375 16.188 3.9206-3.6982 7.9076-7.3162 12.031-10.812 2.0964-1.8029 4.2255-3.6 6.3438-5.375zm-85.594 2.9688c-1.8724 1.4132-3.8388 2.6962-5.9062 3.9062-1.5307-0.029541-3.0628-0.070068-4.5938-0.09375 3.2758-0.80908 6.7661-2.0554 10.5-3.8125zm92.219 7.375c-4.4857 6.332-9.3654 12.411-14.5 18.344-10.21 11.58-4.9921 6.1559-15.688 16.344-1.532 1.4592-1.2748 3.279-0.25 4.375-9.2642 4.8278-19.164 8.7096-29.312 12.562-27.53 8.1208-60.579 24.524-88.25 10.062-6.0342-6.2738-10.739-13.292-14.562-20.781 1.1958 1.4319 2.5445 2.8246 4.0312 4.1564 17.511 8.3967 35.065 13.746 54.969 10.687 23.222-3.7653 45.853-9.1127 64.969-23.719 8.2765-5.6687 17.642-10.83 21.562-17 6.0454-4.5398 11.605-9.7296 17.031-15.031zm-167.38 6.1875c0.55891 0.91785 1.1629 1.8218 1.8125 2.7188 2.5458 1.6837 5.1019 3.2658 7.6875 4.75 3.5847 3.036 7.4695 5.8354 11.594 8.5 18.283 10.279 39.621 12.122 60.219 12.188 2.3377-0.036011 4.648-0.18457 6.9062-0.4375 7.6543-0.2782 15.283-1.2211 22.781-2.9375-8.6544 2.9006-17.831 4.4879-26.875 6.4064-15.312 3.8489-29.651-0.098999-44.406-4.0314-11.831-2.4581-22.443-6.9999-32.219-13.812-2.953-3.743-5.3313-7.7889-7.375-12-0.042236-0.45032-0.084343-0.89185-0.125-1.3438zm-6.9062 1.7812c0.25665 0.57312 0.51465 1.151 0.78125 1.7188 0.094601 0.81372 0.17688 1.6318 0.28125 2.4375-0.37232-1.3761-0.71173-2.774-1.0625-4.1562zm121.19 11.375c-7.7216 4.0392-15.831 6.9901-24.594 8.25-6.6132 0.48059-13.276 0.40637-19.969-0.4375 7.8231-0.26892 15.592-1.431 23.344-4.125 7.051-1.3369 14.126-2.6415 21.219-3.6875zm-107.97 7.2189c9.7529 6.1012 20.032 10.594 31.594 12.875 15.687 4.1997 31.235 8.3502 47.5 4.0311 5.7225-1.1818 11.462-2.2639 17.094-3.5936-12.559 5.0059-25.977 7.7139-39.625 9.9061-15.35 2.2869-29.244-0.73462-42.75-6.4686 2.7976 0.086914 4.676-3.8263 1.6562-5.9064-5.2339-3.6052-10.624-6.9751-15.469-10.844zm3 9.9375c2.7231 1.9038 5.4837 3.7808 8.25 5.6875-1.8328-0.82568-3.6441-1.7128-5.4688-2.625-1.0204-0.98962-1.9359-2.0115-2.7812-3.0625z" stroke-linecap="round" stroke-width="16" fill="#2dbfbf"/>
 </g>
</svg>
